HIERARCHY
ROOT Hips
{
	OFFSET 0.000000 121.760803 0.000000
	CHANNELS 6 Xposition Yposition Zposition Xrotation Yrotation Zrotation 
	JOINT Spine
	{
		OFFSET 0.072000 7.257294 -0.789700
		CHANNELS 3 Xrotation Yrotation Zrotation
		JOINT Spine1
		{
			OFFSET 0.000000 12.508769 -0.658067
			CHANNELS 3 Xrotation Yrotation Zrotation
			JOINT Spine1_split
			{
				OFFSET 0.000000 12.508769 -0.658067
				CHANNELS 3 Xrotation Yrotation Zrotation
				JOINT Spine2
				{
					OFFSET 0.000000 12.508769 -0.658067
					CHANNELS 3 Xrotation Yrotation Zrotation
					JOINT Neck
					{
						OFFSET 0.000000 14.033295 7.520400
						CHANNELS 3 Xrotation Yrotation Zrotation
						JOINT Head
						{
							OFFSET 0.000000 8.198502 5.703100
							CHANNELS 3 Xrotation Yrotation Zrotation
							JOINT HeadTop_End
							{
								OFFSET 0.000000 17.760803 13.332701
								CHANNELS 3 Xrotation Yrotation Zrotation
								End Site
								{
									OFFSET 0.000000 0.000000 0.000000
								}
							}
						}
					}
					JOINT LeftShoulder
					{
						OFFSET 6.292450 5.785301 -0.669000
						CHANNELS 3 Xrotation Yrotation Zrotation
						JOINT LeftShoulder_split
						{
							OFFSET 6.292450 5.785301 -0.669000
							CHANNELS 3 Xrotation Yrotation Zrotation
							JOINT LeftArm
							{
								OFFSET 13.907140 -6.093903 1.965100
								CHANNELS 3 Xrotation Yrotation Zrotation
								JOINT LeftForeArm
								{
									OFFSET 34.140198 0.000000 0.000000
									CHANNELS 3 Xrotation Yrotation Zrotation
									JOINT LeftHand
									{
										OFFSET 40.960209 0.000000 0.000000
										CHANNELS 3 Xrotation Yrotation Zrotation
										JOINT LeftHandThumb1
										{
											OFFSET 10.006996 -7.170425 9.573125
											CHANNELS 3 Xrotation Yrotation Zrotation
											JOINT LeftHandThumb2
											{
												OFFSET 1.835007 -1.059448 1.059443
												CHANNELS 3 Xrotation Yrotation Zrotation
												JOINT LeftHandThumb3
												{
													OFFSET 2.112267 -1.219513 1.219518
													CHANNELS 3 Xrotation Yrotation Zrotation
													JOINT LeftHandThumb4
													{
														OFFSET 4.843811 -2.796570 2.796576
														CHANNELS 3 Xrotation Yrotation Zrotation
														End Site
														{
															OFFSET 0.000000 0.000000 0.000000
														}
													}
												}
											}
										}
										JOINT LeftHandIndex1
										{
											OFFSET 18.389847 -0.922348 4.596882
											CHANNELS 3 Xrotation Yrotation Zrotation
											JOINT LeftHandIndex2
											{
												OFFSET 4.711273 0.000000 0.000000
												CHANNELS 3 Xrotation Yrotation Zrotation
												JOINT LeftHandIndex3
												{
													OFFSET 2.886131 0.000000 0.000000
													CHANNELS 3 Xrotation Yrotation Zrotation
													JOINT LeftHandIndex4
													{
														OFFSET 6.145912 0.000000 0.000000
														CHANNELS 3 Xrotation Yrotation Zrotation
														End Site
														{
															OFFSET 0.000000 0.000000 0.000000
														}
													}
												}
											}
										}
										JOINT LeftHandMiddle1
										{
											OFFSET 18.013008 0.000000 0.000000
											CHANNELS 3 Xrotation Yrotation Zrotation
											JOINT LeftHandMiddle2
											{
												OFFSET 4.946693 0.000000 0.000000
												CHANNELS 3 Xrotation Yrotation Zrotation
												JOINT LeftHandMiddle3
												{
													OFFSET 3.342232 0.000000 0.000000
													CHANNELS 3 Xrotation Yrotation Zrotation
													JOINT LeftHandMiddle4
													{
														OFFSET 4.461754 0.000000 0.000000
														CHANNELS 3 Xrotation Yrotation Zrotation
														End Site
														{
															OFFSET 0.000000 0.000000 0.000000
														}
													}
												}
											}
										}
										JOINT LeftHandRing1
										{
											OFFSET 15.849892 -0.102921 -4.126150
											CHANNELS 3 Xrotation Yrotation Zrotation
											JOINT LeftHandRing2
											{
												OFFSET 3.527054 0.000000 0.000000
												CHANNELS 3 Xrotation Yrotation Zrotation
												JOINT LeftHandRing3
												{
													OFFSET 2.961098 0.000000 0.000000
													CHANNELS 3 Xrotation Yrotation Zrotation
													JOINT LeftHandRing4
													{
														OFFSET 4.927200 0.000000 0.000000
														CHANNELS 3 Xrotation Yrotation Zrotation
														End Site
														{
															OFFSET 0.000000 0.000000 0.000000
														}
													}
												}
											}
										}
										JOINT LeftHandPinky1
										{
											OFFSET 12.791824 -0.832031 -6.799156
											CHANNELS 3 Xrotation Yrotation Zrotation
											JOINT LeftHandPinky2
											{
												OFFSET 3.327133 0.000000 0.000000
												CHANNELS 3 Xrotation Yrotation Zrotation
												JOINT LeftHandPinky3
												{
													OFFSET 3.014900 0.000000 0.000000
													CHANNELS 3 Xrotation Yrotation Zrotation
													JOINT LeftHandPinky4
													{
														OFFSET 5.847786 0.000000 0.000000
														CHANNELS 3 Xrotation Yrotation Zrotation
														End Site
														{
															OFFSET 0.000000 0.000000 0.000000
														}
													}
												}
											}
										}
									}
								}
							}
						}
					}
					JOINT RightShoulder
					{
						OFFSET -6.292450 5.785301 -0.669000
						CHANNELS 3 Xrotation Yrotation Zrotation
						JOINT RightShoulder_split
						{
							OFFSET -6.292450 5.785301 -0.669000
							CHANNELS 3 Xrotation Yrotation Zrotation
							JOINT RightArm
							{
								OFFSET -13.907140 -6.093903 1.965100
								CHANNELS 3 Xrotation Yrotation Zrotation
								JOINT RightForeArm
								{
									OFFSET -34.140198 0.000000 0.000000
									CHANNELS 3 Xrotation Yrotation Zrotation
									JOINT RightHand
									{
										OFFSET -40.960209 0.000000 0.000000
										CHANNELS 3 Xrotation Yrotation Zrotation
										JOINT RightHandThumb1
										{
											OFFSET -10.007050 -7.170456 9.573117
											CHANNELS 3 Xrotation Yrotation Zrotation
											JOINT RightHandThumb2
											{
												OFFSET -1.835007 -1.059448 1.059443
												CHANNELS 3 Xrotation Yrotation Zrotation
												JOINT RightHandThumb3
												{
													OFFSET -2.112267 -1.219513 1.219518
													CHANNELS 3 Xrotation Yrotation Zrotation
													JOINT RightHandThumb4
													{
														OFFSET -4.843834 -2.796585 2.796590
														CHANNELS 3 Xrotation Yrotation Zrotation
														End Site
														{
															OFFSET 0.000000 0.000000 0.000000
														}
													}
												}
											}
										}
										JOINT RightHandIndex1
										{
											OFFSET -18.389870 -0.922424 4.596786
											CHANNELS 3 Xrotation Yrotation Zrotation
											JOINT RightHandIndex2
											{
												OFFSET -4.711273 0.000000 0.000000
												CHANNELS 3 Xrotation Yrotation Zrotation
												JOINT RightHandIndex3
												{
													OFFSET -2.886131 0.000000 0.000000
													CHANNELS 3 Xrotation Yrotation Zrotation
													JOINT RightHandIndex4
													{
														OFFSET -6.145920 0.000000 0.000000
														CHANNELS 3 Xrotation Yrotation Zrotation
														End Site
														{
															OFFSET 0.000000 0.000000 0.000000
														}
													}
												}
											}
										}
										JOINT RightHandMiddle1
										{
											OFFSET -18.013008 0.000000 0.000000
											CHANNELS 3 Xrotation Yrotation Zrotation
											JOINT RightHandMiddle2
											{
												OFFSET -4.946693 0.000000 0.000000
												CHANNELS 3 Xrotation Yrotation Zrotation
												JOINT RightHandMiddle3
												{
													OFFSET -3.342232 0.000000 0.000000
													CHANNELS 3 Xrotation Yrotation Zrotation
													JOINT RightHandMiddle4
													{
														OFFSET -4.461754 0.000000 0.000000
														CHANNELS 3 Xrotation Yrotation Zrotation
														End Site
														{
															OFFSET 0.000000 0.000000 0.000000
														}
													}
												}
											}
										}
										JOINT RightHandRing1
										{
											OFFSET -15.849876 -0.102936 -4.126237
											CHANNELS 3 Xrotation Yrotation Zrotation
											JOINT RightHandRing2
											{
												OFFSET -3.527054 0.000000 0.000000
												CHANNELS 3 Xrotation Yrotation Zrotation
												JOINT RightHandRing3
												{
													OFFSET -2.961098 0.000000 0.000000
													CHANNELS 3 Xrotation Yrotation Zrotation
													JOINT RightHandRing4
													{
														OFFSET -4.927200 0.000000 0.000000
														CHANNELS 3 Xrotation Yrotation Zrotation
														End Site
														{
															OFFSET 0.000000 0.000000 0.000000
														}
													}
												}
											}
										}
										JOINT RightHandPinky1
										{
											OFFSET -12.791786 -0.832077 -6.799222
											CHANNELS 3 Xrotation Yrotation Zrotation
											JOINT RightHandPinky2
											{
												OFFSET -3.327133 0.000000 0.000000
												CHANNELS 3 Xrotation Yrotation Zrotation
												JOINT RightHandPinky3
												{
													OFFSET -3.014900 0.000000 0.000000
													CHANNELS 3 Xrotation Yrotation Zrotation
													JOINT RightHandPinky4
													{
														OFFSET -5.847786 0.000000 0.000000
														CHANNELS 3 Xrotation Yrotation Zrotation
														End Site
														{
															OFFSET 0.000000 0.000000 0.000000
														}
													}
												}
											}
										}
									}
								}
							}
						}
					}
				}
			}
		}
	}
	JOINT LeftUpLeg
	{
		OFFSET 13.026900 -6.336304 -1.092800
		CHANNELS 3 Xrotation Yrotation Zrotation
		JOINT LeftLeg
		{
			OFFSET 0.524474 -46.096886 9.782700
			CHANNELS 3 Xrotation Yrotation Zrotation
			JOINT LeftFoot
			{
				OFFSET -0.524474 -53.427422 -12.948200
				CHANNELS 3 Xrotation Yrotation Zrotation
				JOINT LeftToeBase
				{
					OFFSET 0.192200 -14.009700 16.364100
					CHANNELS 3 Xrotation Yrotation Zrotation
					JOINT LeftToe_End
					{
						OFFSET -1.784700 -0.561700 9.474800
						CHANNELS 3 Xrotation Yrotation Zrotation
						End Site
						{
							OFFSET 0.000000 0.000000 0.000000
						}
					}
				}
			}
		}
	}
	JOINT RightUpLeg
	{
		OFFSET -12.883000 -6.336304 -1.092800
		CHANNELS 3 Xrotation Yrotation Zrotation
		JOINT RightLeg
		{
			OFFSET -0.524587 -46.096825 9.782800
			CHANNELS 3 Xrotation Yrotation Zrotation
			JOINT RightFoot
			{
				OFFSET 0.524587 -53.427383 -12.948300
				CHANNELS 3 Xrotation Yrotation Zrotation
				JOINT RightToeBase
				{
					OFFSET -0.192200 -14.009700 16.364100
					CHANNELS 3 Xrotation Yrotation Zrotation
					JOINT RightToe_End
					{
						OFFSET 1.784700 -0.561700 9.474800
						CHANNELS 3 Xrotation Yrotation Zrotation
						End Site
						{
							OFFSET 0.000000 0.000000 0.000000
						}
					}
				}
			}
		}
	}
}
MOTION
Frames: 5
Frame Time: 0.016667
0.324927 97.335701 0.105551 10.780272 67.605083 -12.772175 1.879953 -2.286843 0.858609 2.147806 -0.574861 -0.033124 0.000000 0.000000 0.000000 2.136799 -0.620502 -0.146677 -4.452906 -10.379984 0.183236 -3.546772 -51.462330 5.883605 -0.000000 -0.000000 0.000000 1.127385 -10.640395 -5.486604 0.000000 0.000000 0.000000 -1.802089 -47.065430 -47.163160 -0.000011 -106.321867 -0.000005 -14.180990 -27.377406 4.759056 -9.674877 0.269255 1.575500 18.503657 20.929656 -3.451908 -18.184757 -25.645182 1.164901 0.000000 -0.000000 0.000000 -3.846442 2.878473 -61.548078 2.994985 5.108762 -60.739909 1.046343 3.343010 -34.750923 -0.000001 0.000003 -0.000000 -2.841120 4.594550 -63.952113 4.026914 5.560375 -71.804863 2.498963 4.798400 -55.000300 -0.000000 -0.000004 0.000001 -4.005790 6.210679 -77.776853 4.605480 5.717420 -77.688067 1.644156 4.070204 -43.978232 0.000001 0.000001 0.000001 -0.923511 7.377200 -82.600865 4.957409 5.782657 -81.199563 3.978844 5.544430 -71.308036 -0.000001 -0.000001 -0.000001 0.469306 -2.168347 7.105747 0.000000 0.000000 0.000000 -29.988362 -15.739971 41.708403 -0.000035 109.347176 0.000040 14.603129 20.324242 -39.470034 -6.752284 7.209117 -18.581272 15.979730 -27.517673 14.723412 -5.137992 21.103504 -19.354699 -0.000000 0.000002 0.000001 -4.026026 10.918943 28.366759 3.771263 -4.572316 79.022256 0.645269 -2.367075 30.493018 -0.000000 -0.000000 0.000001 -4.881333 0.185794 47.726118 2.776642 -4.261379 66.161194 0.779566 -2.581388 33.603062 0.000000 -0.000001 0.000000 -3.940811 -1.274184 51.126401 3.609629 -4.538080 76.987338 0.576875 -2.246988 28.794093 0.000000 -0.000000 0.000002 -2.235439 -3.308455 56.826962 2.160901 -3.932897 57.559295 0.789816 -2.596735 33.829954 -0.000001 0.000001 -0.000002 -18.523558 0.136725 21.126820 48.979355 -7.051802 9.799596 -30.245126 4.351026 -14.102148 -9.492820 0.000006 0.000000 0.000000 -0.000003 -0.000000 -35.312242 6.895139 -15.676594 45.347310 8.410049 -6.548645 -15.879505 1.509849 21.241605 -5.169456 0.000011 -0.000000 -0.000001 -0.000002 -0.000000 
0.734365 99.942474 -0.269601 9.246019 65.874121 -11.199566 1.947277 -2.553094 0.845450 2.196506 -0.669193 -0.093634 0.000000 0.000000 0.000000 2.178837 -0.721588 -0.214625 -4.181041 -10.086957 0.380455 -3.435689 -49.846140 5.967146 -0.000000 -0.000000 -0.000000 1.159397 -10.584905 -4.968928 0.000000 0.000000 0.000000 -3.440720 -46.440485 -48.700547 -0.000007 -107.022268 -0.000030 -13.940670 -26.498759 3.948679 -9.674876 0.269259 1.575500 18.506561 20.943349 -3.449983 -18.178402 -25.632322 1.172633 0.000000 0.000004 -0.000000 -3.845315 2.879129 -61.562558 2.996302 5.109470 -60.754444 1.047168 3.344220 -34.765349 -0.000002 0.000001 -0.000000 -2.840557 4.596729 -63.966368 4.028337 5.560862 -71.819589 2.500190 4.799245 -55.014787 0.000001 -0.000004 -0.000002 -4.004839 6.213148 -77.791026 4.606979 5.717716 -77.702950 1.645179 4.071261 -43.992678 0.000002 0.000002 0.000003 -0.922249 7.378917 -82.615263 4.958892 5.782880 -81.214200 3.980243 5.544901 -71.322570 0.000000 0.000002 -0.000001 0.472925 -1.987571 7.167156 0.000000 0.000000 0.000000 -29.704817 -14.959993 41.837801 -0.000029 110.239595 0.000033 15.232229 19.900566 -39.661450 -6.752284 7.209116 -18.581272 15.985329 -27.530486 14.722616 -5.136845 21.089409 -19.359358 -0.000000 0.000000 0.000002 -4.025368 10.917536 28.380997 3.772419 -4.572537 79.036763 0.645866 -2.368087 30.507450 0.000000 0.000000 0.000001 -4.881952 0.183409 47.740215 2.777743 -4.261864 66.176036 0.780210 -2.582366 33.617471 0.000000 0.000000 0.000000 -3.941069 -1.276342 51.140577 3.610806 -4.538351 77.002091 0.577441 -2.248015 28.808539 0.000000 0.000001 0.000001 -2.235186 -3.310197 56.841275 2.161903 -3.933532 57.573905 0.790469 -2.597707 33.844404 0.000001 0.000000 -0.000002 -16.651105 2.417155 20.397796 45.647606 -6.926226 9.979569 -26.641368 3.993468 -14.080254 -10.899848 0.000017 0.000002 0.000000 -0.000001 -0.000000 -33.388256 5.786317 -15.817275 40.213534 8.438157 -6.566388 -12.435205 4.719042 22.267994 -4.656530 -0.000005 0.000003 -0.000000 0.000000 -0.000000 
1.200997 102.888306 -0.716788 7.988977 63.843069 -9.940214 1.901406 -2.790059 0.838616 2.147877 -0.743400 -0.181093 0.000000 0.000000 0.000000 2.123235 -0.800165 -0.306782 -3.798640 -9.756316 0.643417 -3.007115 -47.953143 6.067489 -0.000000 -0.000000 0.000000 1.197100 -10.412335 -4.302577 0.000000 0.000000 0.000000 -5.193341 -45.854256 -50.234125 0.000070 -107.755994 0.000067 -13.352818 -25.456299 3.281897 -9.674878 0.269255 1.575499 18.511319 20.965585 -3.446848 -18.168109 -25.611401 1.185110 -0.000000 -0.000005 0.000000 -3.843483 2.880176 -61.586047 2.998407 5.110642 -60.778022 1.048527 3.346188 -34.788817 -0.000000 -0.000001 -0.000001 -2.839656 4.600280 -63.989481 4.030661 5.561602 -71.843536 2.502156 4.800619 -55.038327 0.000000 -0.000002 -0.000002 -4.003297 6.217143 -77.814030 4.609375 5.718232 -77.727129 1.646842 4.072997 -44.016171 0.000001 -0.000001 -0.000001 -0.920195 7.381701 -82.638643 4.961296 5.783247 -81.238127 3.982532 5.545670 -71.346189 0.000001 -0.000001 0.000001 0.488560 -1.683395 7.375536 0.000000 0.000000 0.000000 -29.457199 -13.864267 41.538178 -0.000012 111.001673 0.000009 15.563245 19.335501 -39.736125 -6.752284 7.209117 -18.581272 15.994432 -27.551299 14.721353 -5.134993 21.066489 -19.366926 -0.000000 0.000000 -0.000003 -4.024292 10.915246 28.404151 3.774299 -4.572898 79.060348 0.646836 -2.369732 30.530908 0.000000 -0.000000 0.000002 -4.882945 0.179541 47.763124 2.779534 -4.262654 66.200154 0.781273 -2.583953 33.640912 -0.000000 -0.000000 -0.000001 -3.941480 -1.279850 51.163629 3.612700 -4.538783 77.026058 0.578358 -2.249688 28.831980 0.000000 -0.000000 -0.000002 -2.234772 -3.313028 56.864535 2.163531 -3.934568 57.597647 0.791532 -2.599294 33.867855 -0.000000 -0.000001 0.000002 -14.779845 4.653895 19.647695 42.002518 -6.584393 9.926582 -21.945087 3.482588 -13.930829 -12.947224 -0.000020 -0.000003 -0.000000 0.000002 -0.000000 -31.086090 4.528231 -15.738030 34.070978 8.473246 -6.567638 -8.309385 7.951410 22.892257 -5.002593 -0.000007 -0.000004 0.000000 0.000000 -0.000000 
1.859653 106.980598 -1.392179 7.127135 61.017953 -9.264563 1.513780 -2.951900 0.932206 1.806337 -0.774979 -0.347967 0.000000 0.000000 0.000000 1.773443 -0.829115 -0.471260 -3.055414 -9.319771 1.116652 -1.591863 -45.242944 6.221000 -0.000000 -0.000000 -0.000000 1.239726 -9.854057 -3.184279 0.000000 0.000000 0.000000 -7.337279 -45.581438 -51.880327 -0.000009 -108.518421 -0.000008 -11.745925 -23.953241 2.992374 -9.674877 0.269256 1.575499 18.520717 21.009539 -3.440670 -18.147785 -25.570060 1.209791 -0.000000 0.000001 0.000001 -3.839881 2.882209 -61.632458 3.002535 5.112962 -60.824583 1.051256 3.350078 -34.835204 0.000001 0.000001 0.000001 -2.837891 4.607306 -64.035175 4.035253 5.563097 -71.890862 2.506045 4.803339 -55.084830 -0.000001 0.000004 0.000001 -4.000260 6.225037 -77.859485 4.614136 5.719274 -77.774872 1.650142 4.076405 -44.062589 -0.000000 -0.000001 0.000001 -0.916160 7.387195 -82.684843 4.966061 5.783971 -81.285316 3.987032 5.547174 -71.392819 -0.000002 -0.000002 0.000000 0.528485 -1.104081 8.063768 0.000000 0.000000 0.000000 -29.166509 -11.793687 40.000275 -0.000121 111.367075 0.000144 15.073746 18.358065 -39.503335 -6.752284 7.209118 -18.581270 16.012438 -27.592445 14.718923 -5.131344 21.021205 -19.381840 -0.000000 -0.000000 0.000003 -4.022165 10.910753 28.449823 3.778015 -4.573612 79.106964 0.648753 -2.372978 30.577282 -0.000000 0.000000 0.000000 -4.884905 0.171898 47.808356 2.783072 -4.264215 66.247746 0.783360 -2.587090 33.687272 0.000001 -0.000000 -0.000002 -3.942288 -1.286768 51.209162 3.616440 -4.539655 77.073405 0.580184 -2.252992 28.878347 -0.000000 -0.000001 -0.000001 -2.233950 -3.318612 56.910506 2.166751 -3.936598 57.644563 0.793631 -2.602421 33.914218 -0.000000 0.000002 -0.000003 -12.715174 7.032484 18.976521 37.130268 -5.733468 9.180847 -14.479250 2.542132 -13.485494 -17.585896 -0.000009 -0.000004 -0.000000 -0.000001 0.000000 -27.520519 2.795188 -14.857569 24.636328 8.352998 -6.825511 -2.319269 11.905560 22.814312 -8.997764 -0.000002 -0.000006 -0.000000 -0.000001 -0.000000 
2.461762 110.979630 -1.927049 6.539808 57.771946 -8.509683 1.008055 -3.093505 0.707017 1.369297 -0.750840 -0.544704 0.000000 0.000000 0.000000 1.328520 -0.799757 -0.660572 -2.260077 -8.831628 1.629504 -0.070823 -42.200758 6.263266 0.000000 0.000000 -0.000000 1.264991 -9.251289 -1.937964 0.000000 0.000000 0.000000 -9.747297 -45.080990 -53.432915 0.000036 -109.456862 0.000022 -9.866276 -22.216647 2.761857 -9.674876 0.269254 1.575501 18.533641 21.070037 -3.432235 -18.119922 -25.513221 1.243576 0.000000 -0.000006 0.000000 -3.834916 2.885036 -61.696293 3.008263 5.116122 -60.888643 1.054980 3.355417 -34.898934 -0.000002 0.000001 0.000000 -2.835441 4.616956 -64.098006 4.041562 5.565145 -71.955893 2.511421 4.807047 -55.148754 0.000001 -0.000002 0.000000 -3.996063 6.235914 -77.921954 4.620685 5.720682 -77.840551 1.654681 4.081071 -44.126352 -0.000001 -0.000004 -0.000000 -0.910579 7.394751 -82.748377 4.972599 5.784976 -81.350251 3.993235 5.549244 -71.456940 0.000003 0.000000 0.000001 0.565216 -0.209074 8.822583 0.000000 0.000000 0.000000 -28.956840 -9.525897 37.940533 0.000044 111.612832 -0.000029 14.183852 17.219392 -39.128115 -6.752284 7.209118 -18.581272 16.037255 -27.649036 14.715711 -5.126371 20.958926 -19.402252 -0.000000 0.000001 0.000000 -4.019238 10.904582 28.512690 3.783126 -4.574590 79.171031 0.651397 -2.377444 30.641065 -0.000001 -0.000000 0.000002 -4.887589 0.161381 47.870586 2.787944 -4.266344 66.313262 0.786237 -2.591394 33.750943 -0.000000 0.000001 -0.000003 -3.943388 -1.296292 51.271758 3.621593 -4.540825 77.138483 0.582690 -2.257526 28.942018 0.000001 -0.000001 0.000002 -2.232809 -3.326296 56.973705 2.171183 -3.939394 57.709061 0.796530 -2.606724 33.977985 -0.000001 0.000001 -0.000003 -11.135309 8.917438 18.058773 32.660168 -4.482401 8.182437 -4.928478 1.343416 -12.872132 -21.534012 0.000022 -0.009645 -0.000000 -0.000001 -0.000000 -25.192398 1.469634 -13.611807 16.421503 8.627477 -7.091118 7.237754 15.636986 21.187575 -11.707702 0.000027 0.000008 -0.000000 0.000000 -0.000000 
